<svg xmlns="http://www.w3.org/2000/svg" xmlns:xlink="http://www.w3.org/1999/xlink" contentStyleType="text/css" height="619px" preserveAspectRatio="none" style="width:514px;height:619px;background:#FFFFFF;" version="1.1" viewBox="0 0 514 619" width="514px" zoomAndPan="magnify"><defs/><g><!--cluster ea5cb8ff0abf6b4ca0080069daaeada0--><g id="cluster_ea5cb8ff0abf6b4ca0080069daaeada0"><polygon fill="none" points="274,16,284,6,446,6,446,501.48,436,511.48,274,511.48,274,16" style="stroke:#181818;stroke-width:1.0;"/><line style="stroke:#181818;stroke-width:1.0;" x1="436" x2="446" y1="16" y2="6"/><line style="stroke:#181818;stroke-width:1.0;" x1="274" x2="436" y1="16" y2="16"/><line style="stroke:#181818;stroke-width:1.0;" x1="436" x2="436" y1="16" y2="511.48"/><text fill="#000000" font-family="sans-serif" font-size="14" font-weight="bold" lengthAdjust="spacing" textLength="40" x="336" y="31.9951">Todo</text></g><!--cluster ee11cbb19052e40b07aac0ca060c23ee--><g id="cluster_ee11cbb19052e40b07aac0ca060c23ee"><polygon fill="none" points="16,16,26,6,188,6,188,501.48,178,511.48,16,511.48,16,16" style="stroke:#181818;stroke-width:1.0;"/><line style="stroke:#181818;stroke-width:1.0;" x1="178" x2="188" y1="16" y2="6"/><line style="stroke:#181818;stroke-width:1.0;" x1="16" x2="178" y1="16" y2="16"/><line style="stroke:#181818;stroke-width:1.0;" x1="178" x2="178" y1="16" y2="511.48"/><text fill="#000000" font-family="sans-serif" font-size="14" font-weight="bold" lengthAdjust="spacing" textLength="37" x="79.5" y="31.9951">User</text></g><!--entity 299fdeaa283b8e3f46a564eca5f058b3--><g id="elem_299fdeaa283b8e3f46a564eca5f058b3"><rect fill="#F1F1F1" height="95.1875" rx="2.5" ry="2.5" style="stroke:#181818;stroke-width:0.5;" width="139" x="290.5" y="46"/><rect fill="#F1F1F1" height="10" style="stroke:#181818;stroke-width:0.5;" width="15" x="409.5" y="51"/><rect fill="#F1F1F1" height="2" style="stroke:#181818;stroke-width:0.5;" width="4" x="407.5" y="53"/><rect fill="#F1F1F1" height="2" style="stroke:#181818;stroke-width:0.5;" width="4" x="407.5" y="57"/><text fill="#000000" font-family="sans-serif" font-size="14" font-weight="bold" lengthAdjust="spacing" textLength="36" x="305.5" y="78.9951">todo</text><text fill="#000000" font-family="sans-serif" font-size="14" lengthAdjust="spacing" textLength="4" x="305.5" y="95.292">&#160;</text><text fill="#000000" font-family="sans-serif" font-size="14" lengthAdjust="spacing" textLength="99" x="305.5" y="111.5889">restart: always</text><text fill="#000000" font-family="sans-serif" font-size="14" lengthAdjust="spacing" textLength="4" x="305.5" y="127.8857">&#160;</text></g><!--entity d419798edd963235480172c4ba74aaa7--><g id="elem_d419798edd963235480172c4ba74aaa7"><ellipse cx="403" cy="231.19" fill="#F1F1F1" rx="8" ry="8" style="stroke:#181818;stroke-width:0.5;"/><text fill="#000000" font-family="sans-serif" font-size="14" lengthAdjust="spacing" textLength="36" x="385" y="261.1851">8001</text></g><!--entity e56c96c6c1c00ce000abdda7e7edc879--><g id="elem_e56c96c6c1c00ce000abdda7e7edc879"><rect fill="#F1F1F1" height="39.2969" rx="2.5" ry="2.5" style="stroke:#181818;stroke-width:0.5;" width="130" x="290" y="456.19"/><polygon fill="#F1F1F1" points="403,461.19,403,475.19,415,475.19,415,467.19,409,461.19,403,461.19" style="stroke:#181818;stroke-width:0.5;"/><line style="stroke:#181818;stroke-width:0.5;" x1="409" x2="409" y1="461.19" y2="467.19"/><line style="stroke:#181818;stroke-width:0.5;" x1="415" x2="409" y1="467.19" y2="467.19"/><text fill="#000000" font-family="sans-serif" font-size="14" lengthAdjust="spacing" textLength="100" x="300" y="482.1851">/microservices</text></g><!--entity 5104c526a02a30f427a079e87b43538e--><g id="elem_5104c526a02a30f427a079e87b43538e"><rect fill="#F1F1F1" height="95.1875" rx="2.5" ry="2.5" style="stroke:#181818;stroke-width:0.5;" width="139" x="32.5" y="46"/><rect fill="#F1F1F1" height="10" style="stroke:#181818;stroke-width:0.5;" width="15" x="151.5" y="51"/><rect fill="#F1F1F1" height="2" style="stroke:#181818;stroke-width:0.5;" width="4" x="149.5" y="53"/><rect fill="#F1F1F1" height="2" style="stroke:#181818;stroke-width:0.5;" width="4" x="149.5" y="57"/><text fill="#000000" font-family="sans-serif" font-size="14" font-weight="bold" lengthAdjust="spacing" textLength="36" x="47.5" y="78.9951">user</text><text fill="#000000" font-family="sans-serif" font-size="14" lengthAdjust="spacing" textLength="4" x="47.5" y="95.292">&#160;</text><text fill="#000000" font-family="sans-serif" font-size="14" lengthAdjust="spacing" textLength="99" x="47.5" y="111.5889">restart: always</text><text fill="#000000" font-family="sans-serif" font-size="14" lengthAdjust="spacing" textLength="4" x="47.5" y="127.8857">&#160;</text></g><!--entity 4433d32a0741e8d81de13e24c5dd2a48--><g id="elem_4433d32a0741e8d81de13e24c5dd2a48"><ellipse cx="145" cy="231.19" fill="#F1F1F1" rx="8" ry="8" style="stroke:#181818;stroke-width:0.5;"/><text fill="#000000" font-family="sans-serif" font-size="14" lengthAdjust="spacing" textLength="36" x="127" y="261.1851">8000</text></g><!--entity 4ad2330933d747e8234625b5b08938c8--><g id="elem_4ad2330933d747e8234625b5b08938c8"><rect fill="#F1F1F1" height="39.2969" rx="2.5" ry="2.5" style="stroke:#181818;stroke-width:0.5;" width="130" x="37" y="456.19"/><polygon fill="#F1F1F1" points="150,461.19,150,475.19,162,475.19,162,467.19,156,461.19,150,461.19" style="stroke:#181818;stroke-width:0.5;"/><line style="stroke:#181818;stroke-width:0.5;" x1="156" x2="156" y1="461.19" y2="467.19"/><line style="stroke:#181818;stroke-width:0.5;" x1="162" x2="156" y1="467.19" y2="467.19"/><text fill="#000000" font-family="sans-serif" font-size="14" lengthAdjust="spacing" textLength="100" x="47" y="482.1851">/microservices</text></g><!--entity 79ecb9ed031a3c4c8212bbbf4439772d--><g id="elem_79ecb9ed031a3c4c8212bbbf4439772d"><ellipse cx="489" cy="366.19" fill="#F1F1F1" rx="8" ry="8" style="stroke:#181818;stroke-width:0.5;"/><text fill="#000000" font-family="sans-serif" font-size="14" lengthAdjust="spacing" textLength="36" x="471" y="396.1851">5002</text></g><!--entity 06e2f18a5ccb18b7f266c7f9d77538d1--><g id="elem_06e2f18a5ccb18b7f266c7f9d77538d1"><ellipse cx="231" cy="366.19" fill="#F1F1F1" rx="8" ry="8" style="stroke:#181818;stroke-width:0.5;"/><text fill="#000000" font-family="sans-serif" font-size="14" lengthAdjust="spacing" textLength="36" x="213" y="396.1851">5001</text></g><!--entity 58b9e70b65a77700ba66e9c64d6b9f89--><g id="elem_58b9e70b65a77700ba66e9c64d6b9f89"><rect fill="#F1F1F1" height="39.2969" rx="2.5" ry="2.5" style="stroke:#181818;stroke-width:0.5;" width="34" x="235" y="574.48"/><polygon fill="#F1F1F1" points="252,579.48,252,593.48,264,593.48,264,585.48,258,579.48,252,579.48" style="stroke:#181818;stroke-width:0.5;"/><line style="stroke:#181818;stroke-width:0.5;" x1="258" x2="258" y1="579.48" y2="585.48"/><line style="stroke:#181818;stroke-width:0.5;" x1="264" x2="258" y1="585.48" y2="585.48"/><text fill="#000000" font-family="sans-serif" font-size="14" lengthAdjust="spacing" textLength="4" x="245" y="600.4751">.</text></g><!--link 299fdeaa283b8e3f46a564eca5f058b3 to d419798edd963235480172c4ba74aaa7--><g id="link_299fdeaa283b8e3f46a564eca5f058b3_d419798edd963235480172c4ba74aaa7"><path codeLine="25" d="M374.92,141.64 C384.33,171.31 395.6,206.86 400.51,222.34 " fill="none" id="299fdeaa283b8e3f46a564eca5f058b3-d419798edd963235480172c4ba74aaa7" style="stroke:#181818;stroke-width:1.0;"/></g><!--link d419798edd963235480172c4ba74aaa7 to 79ecb9ed031a3c4c8212bbbf4439772d--><g id="link_d419798edd963235480172c4ba74aaa7_79ecb9ed031a3c4c8212bbbf4439772d"><path codeLine="26" d="M408.12,240.11 C423.45,263.82 468.86,334.04 484.01,357.47 " fill="none" id="d419798edd963235480172c4ba74aaa7-79ecb9ed031a3c4c8212bbbf4439772d" style="stroke:#181818;stroke-width:1.0;"/></g><!--link e56c96c6c1c00ce000abdda7e7edc879 to 58b9e70b65a77700ba66e9c64d6b9f89--><g id="link_e56c96c6c1c00ce000abdda7e7edc879_58b9e70b65a77700ba66e9c64d6b9f89"><path codeLine="27" d="M338.22,495.78 C319.07,517.4 287.92,552.57 268.77,574.2 " fill="none" id="e56c96c6c1c00ce000abdda7e7edc879-58b9e70b65a77700ba66e9c64d6b9f89" style="stroke:#181818;stroke-width:1.0;"/><text fill="#000000" font-family="sans-serif" font-size="13" lengthAdjust="spacing" textLength="14" x="310" y="540.5469">rw</text></g><!--link 299fdeaa283b8e3f46a564eca5f058b3 to e56c96c6c1c00ce000abdda7e7edc879--><g id="link_299fdeaa283b8e3f46a564eca5f058b3_e56c96c6c1c00ce000abdda7e7edc879"><path codeLine="28" d="M359.38,141.6 C358.28,225.65 356.0893,392.2705 355.3293,449.7505 " fill="none" id="299fdeaa283b8e3f46a564eca5f058b3-to-e56c96c6c1c00ce000abdda7e7edc879" style="stroke:#181818;stroke-width:1.0;stroke-dasharray:7.0,7.0;"/><polygon fill="#181818" points="355.25,455.75,359.3686,446.8037,355.3161,450.7504,351.3693,446.6979,355.25,455.75" style="stroke:#181818;stroke-width:1.0;"/><text fill="#000000" font-family="sans-serif" font-size="13" lengthAdjust="spacing" textLength="23" x="358" y="303.2569">use</text></g><!--link 5104c526a02a30f427a079e87b43538e to 4433d32a0741e8d81de13e24c5dd2a48--><g id="link_5104c526a02a30f427a079e87b43538e_4433d32a0741e8d81de13e24c5dd2a48"><path codeLine="29" d="M116.92,141.64 C126.33,171.31 137.6,206.86 142.51,222.34 " fill="none" id="5104c526a02a30f427a079e87b43538e-4433d32a0741e8d81de13e24c5dd2a48" style="stroke:#181818;stroke-width:1.0;"/></g><!--link 4433d32a0741e8d81de13e24c5dd2a48 to 06e2f18a5ccb18b7f266c7f9d77538d1--><g id="link_4433d32a0741e8d81de13e24c5dd2a48_06e2f18a5ccb18b7f266c7f9d77538d1"><path codeLine="30" d="M150.12,240.11 C165.45,263.82 210.86,334.04 226.01,357.47 " fill="none" id="4433d32a0741e8d81de13e24c5dd2a48-06e2f18a5ccb18b7f266c7f9d77538d1" style="stroke:#181818;stroke-width:1.0;"/></g><!--link 4ad2330933d747e8234625b5b08938c8 to 58b9e70b65a77700ba66e9c64d6b9f89--><g id="link_4ad2330933d747e8234625b5b08938c8_58b9e70b65a77700ba66e9c64d6b9f89"><path codeLine="31" d="M126.43,495.78 C156.82,519.34 207.93,558.96 234.6,579.64 " fill="none" id="4ad2330933d747e8234625b5b08938c8-58b9e70b65a77700ba66e9c64d6b9f89" style="stroke:#181818;stroke-width:1.0;"/><text fill="#000000" font-family="sans-serif" font-size="13" lengthAdjust="spacing" textLength="14" x="186" y="540.5469">rw</text></g><!--link 5104c526a02a30f427a079e87b43538e to 4ad2330933d747e8234625b5b08938c8--><g id="link_5104c526a02a30f427a079e87b43538e_4ad2330933d747e8234625b5b08938c8"><path codeLine="32" d="M101.47,141.46 C101.28,160.33 101.09,182.29 101,202.19 C100.56,297.57 101.3772,405.7102 101.7672,449.9902 " fill="none" id="5104c526a02a30f427a079e87b43538e-to-4ad2330933d747e8234625b5b08938c8" style="stroke:#181818;stroke-width:1.0;stroke-dasharray:7.0,7.0;"/><polygon fill="#181818" points="101.82,455.99,105.7406,446.9551,101.776,450.9902,97.7409,447.0256,101.82,455.99" style="stroke:#181818;stroke-width:1.0;"/><text fill="#000000" font-family="sans-serif" font-size="13" lengthAdjust="spacing" textLength="23" x="101" y="303.2569">use</text></g><!--SRC=[bPBDZXD138JlynIjEK6a3UvVT- -1fu0Juk2stQj8IGObWO0Gxqvd4YIuR8kxNLMVNRJVBzV3xllk-38T5r4pVrXacGsTZLBacbi3gYtLm0IG0L8H8YKXC3ydmylXotBKuyMuKfeeaSk-PlKj98efA5Di47FrvjEqsLowzcOpJISzN-XqUJQqlzAFypHzdjwyDNENjwkr15kmP1KfoJiVGmQBZaCb34I4Kr_UDUABcTyTTdnQpdhwjcCztuF7n2LnOii0h02TG8HGKOKpbkdN0_LZNxjlgBLSgoqGdGQeW4GCdJW1Ew_wBsgq43YwHE38GmiE2R1enXfyz5bNrAzT-tLKMAr3y5wywmh1QfPiHQrNrmr478NyEceWSTv3wHeOKBFp8RbOOuLSVERSKMzk4S2jypqcrw82tfBdmDbPLsjjFKL1TF9d-lu6IEgQpRq7N6sks5nAZAq8OkSK-rUsxRhG7rqKeQP8Y0XGAIKjd8AaMbekqx0bJ_8q_lveO5KPeevgiggCYCopcK_NUGostSfs-txOpPjUhyuy3KjsIpSipsXWLHc-UTIo_xhK4EnngQ7furA_0G00]--></g></svg>