<svg xmlns="http://www.w3.org/2000/svg" xmlns:xlink="http://www.w3.org/1999/xlink" contentStyleType="text/css" height="463px" preserveAspectRatio="none" style="width:561px;height:463px;background:#FFFFFF;" version="1.1" viewBox="0 0 561 463" width="561px" zoomAndPan="magnify"><defs/><g><!--cluster 504b47edbfb965fc8e112613f1c676a4--><g id="cluster_504b47edbfb965fc8e112613f1c676a4"><path d="M8.5,49 L86.5,49 A3.75,3.75 0 0 1 89,51.5 L96,71.2969 L288.5,71.2969 A2.5,2.5 0 0 1 291,73.7969 L291,454.17 A2.5,2.5 0 0 1 288.5,456.67 L8.5,456.67 A2.5,2.5 0 0 1 6,454.17 L6,51.5 A2.5,2.5 0 0 1 8.5,49 " fill="none" style="stroke:#000000;stroke-width:1.5;"/><line style="stroke:#000000;stroke-width:1.5;" x1="6" x2="96" y1="71.2969" y2="71.2969"/><text fill="#000000" font-family="sans-serif" font-size="14" font-weight="bold" lengthAdjust="spacing" textLength="77" x="10" y="63.9951">todo_app/</text></g><!--cluster d0c6737b74d11ab3f67d5bec875e5bd1--><g id="cluster_d0c6737b74d11ab3f67d5bec875e5bd1"><path d="M317.5,6 L424.5,6 A3.75,3.75 0 0 1 427,8.5 L434,28.2969 L551.5,28.2969 A2.5,2.5 0 0 1 554,30.7969 L554,200.39 A2.5,2.5 0 0 1 551.5,202.89 L317.5,202.89 A2.5,2.5 0 0 1 315,200.39 L315,8.5 A2.5,2.5 0 0 1 317.5,6 " fill="none" style="stroke:#000000;stroke-width:1.5;"/><line style="stroke:#000000;stroke-width:1.5;" x1="315" x2="434" y1="28.2969" y2="28.2969"/><text fill="#000000" font-family="sans-serif" font-size="14" font-weight="bold" lengthAdjust="spacing" textLength="106" x="319" y="20.9951">todo_service/</text></g><!--cluster efee3dd0a9231cb39e4d3e00192dace0--><g id="cluster_efee3dd0a9231cb39e4d3e00192dace0"><path d="M341.5,49 L439.5,49 A3.75,3.75 0 0 1 442,51.5 L449,71.2969 L449.5,71.2969 A2.5,2.5 0 0 1 452,73.7969 L452,176.39 A2.5,2.5 0 0 1 449.5,178.89 L341.5,178.89 A2.5,2.5 0 0 1 339,176.39 L339,51.5 A2.5,2.5 0 0 1 341.5,49 " fill="none" style="stroke:#000000;stroke-width:1.5;"/><line style="stroke:#000000;stroke-width:1.5;" x1="339" x2="449" y1="71.2969" y2="71.2969"/><text fill="#000000" font-family="sans-serif" font-size="14" font-weight="bold" lengthAdjust="spacing" textLength="97" x="343" y="63.9951">middleware/</text></g><!--entity 4f8407b2c951fbb2e522b914ffb7c1c0--><g id="elem_4f8407b2c951fbb2e522b914ffb7c1c0"><rect fill="#F1F1F1" height="78.8906" rx="2.5" ry="2.5" style="stroke:#181818;stroke-width:0.5;" width="70" x="22" y="84"/><rect fill="#F1F1F1" height="10" style="stroke:#181818;stroke-width:0.5;" width="15" x="72" y="89"/><rect fill="#F1F1F1" height="2" style="stroke:#181818;stroke-width:0.5;" width="4" x="70" y="91"/><rect fill="#F1F1F1" height="2" style="stroke:#181818;stroke-width:0.5;" width="4" x="70" y="95"/><text fill="#000000" font-family="sans-serif" font-size="14" font-weight="bold" lengthAdjust="spacing" textLength="30" x="37" y="116.9951">urls</text><text fill="#000000" font-family="sans-serif" font-size="14" lengthAdjust="spacing" textLength="4" x="37" y="133.292">&#160;</text><text fill="#000000" font-family="sans-serif" font-size="14" lengthAdjust="spacing" textLength="4" x="37" y="149.5889">&#160;</text></g><!--entity 7529d89b8adaee0046a812c5877968f7--><g id="elem_7529d89b8adaee0046a812c5877968f7"><rect fill="#F1F1F1" height="78.8906" rx="2.5" ry="2.5" style="stroke:#181818;stroke-width:0.5;" width="86" x="31" y="222.89"/><rect fill="#F1F1F1" height="10" style="stroke:#181818;stroke-width:0.5;" width="15" x="97" y="227.89"/><rect fill="#F1F1F1" height="2" style="stroke:#181818;stroke-width:0.5;" width="4" x="95" y="229.89"/><rect fill="#F1F1F1" height="2" style="stroke:#181818;stroke-width:0.5;" width="4" x="95" y="233.89"/><text fill="#000000" font-family="sans-serif" font-size="14" font-weight="bold" lengthAdjust="spacing" textLength="46" x="46" y="255.8851">views</text><text fill="#000000" font-family="sans-serif" font-size="14" lengthAdjust="spacing" textLength="4" x="46" y="272.182">&#160;</text><text fill="#000000" font-family="sans-serif" font-size="14" lengthAdjust="spacing" textLength="4" x="46" y="288.4789">&#160;</text></g><!--entity fc89fd478e8a7211c8707355630c171a--><g id="elem_fc89fd478e8a7211c8707355630c171a"><rect fill="#F1F1F1" height="78.8906" rx="2.5" ry="2.5" style="stroke:#181818;stroke-width:0.5;" width="122" x="22" y="361.78"/><rect fill="#F1F1F1" height="10" style="stroke:#181818;stroke-width:0.5;" width="15" x="124" y="366.78"/><rect fill="#F1F1F1" height="2" style="stroke:#181818;stroke-width:0.5;" width="4" x="122" y="368.78"/><rect fill="#F1F1F1" height="2" style="stroke:#181818;stroke-width:0.5;" width="4" x="122" y="372.78"/><text fill="#000000" font-family="sans-serif" font-size="14" font-weight="bold" lengthAdjust="spacing" textLength="82" x="37" y="394.7751">serializers</text><text fill="#000000" font-family="sans-serif" font-size="14" lengthAdjust="spacing" textLength="4" x="37" y="411.072">&#160;</text><text fill="#000000" font-family="sans-serif" font-size="14" lengthAdjust="spacing" textLength="4" x="37" y="427.3689">&#160;</text></g><!--entity eaf8db9a06add295c1d2286cd63c1368--><g id="elem_eaf8db9a06add295c1d2286cd63c1368"><rect fill="#F1F1F1" height="78.8906" rx="2.5" ry="2.5" style="stroke:#181818;stroke-width:0.5;" width="80" x="127" y="84"/><rect fill="#F1F1F1" height="10" style="stroke:#181818;stroke-width:0.5;" width="15" x="187" y="89"/><rect fill="#F1F1F1" height="2" style="stroke:#181818;stroke-width:0.5;" width="4" x="185" y="91"/><rect fill="#F1F1F1" height="2" style="stroke:#181818;stroke-width:0.5;" width="4" x="185" y="95"/><text fill="#000000" font-family="sans-serif" font-size="14" font-weight="bold" lengthAdjust="spacing" textLength="40" x="142" y="116.9951">tests</text><text fill="#000000" font-family="sans-serif" font-size="14" lengthAdjust="spacing" textLength="4" x="142" y="133.292">&#160;</text><text fill="#000000" font-family="sans-serif" font-size="14" lengthAdjust="spacing" textLength="4" x="142" y="149.5889">&#160;</text></g><!--entity 2c187c09ed69b22eeffd7199ae4813fb--><g id="elem_2c187c09ed69b22eeffd7199ae4813fb"><rect fill="#F1F1F1" height="78.8906" rx="2.5" ry="2.5" style="stroke:#181818;stroke-width:0.5;" width="97" x="178.5" y="361.78"/><rect fill="#F1F1F1" height="10" style="stroke:#181818;stroke-width:0.5;" width="15" x="255.5" y="366.78"/><rect fill="#F1F1F1" height="2" style="stroke:#181818;stroke-width:0.5;" width="4" x="253.5" y="368.78"/><rect fill="#F1F1F1" height="2" style="stroke:#181818;stroke-width:0.5;" width="4" x="253.5" y="372.78"/><text fill="#000000" font-family="sans-serif" font-size="14" font-weight="bold" lengthAdjust="spacing" textLength="57" x="193.5" y="394.7751">models</text><text fill="#000000" font-family="sans-serif" font-size="14" lengthAdjust="spacing" textLength="4" x="193.5" y="411.072">&#160;</text><text fill="#000000" font-family="sans-serif" font-size="14" lengthAdjust="spacing" textLength="4" x="193.5" y="427.3689">&#160;</text></g><!--entity 01e6d04cdc6bab0e976a03c9331b5be7--><g id="elem_01e6d04cdc6bab0e976a03c9331b5be7"><rect fill="#F1F1F1" height="78.8906" rx="2.5" ry="2.5" style="stroke:#181818;stroke-width:0.5;" width="87" x="188.5" y="222.89"/><rect fill="#F1F1F1" height="10" style="stroke:#181818;stroke-width:0.5;" width="15" x="255.5" y="227.89"/><rect fill="#F1F1F1" height="2" style="stroke:#181818;stroke-width:0.5;" width="4" x="253.5" y="229.89"/><rect fill="#F1F1F1" height="2" style="stroke:#181818;stroke-width:0.5;" width="4" x="253.5" y="233.89"/><text fill="#000000" font-family="sans-serif" font-size="14" font-weight="bold" lengthAdjust="spacing" textLength="47" x="203.5" y="255.8851">admin</text><text fill="#000000" font-family="sans-serif" font-size="14" lengthAdjust="spacing" textLength="4" x="203.5" y="272.182">&#160;</text><text fill="#000000" font-family="sans-serif" font-size="14" lengthAdjust="spacing" textLength="4" x="203.5" y="288.4789">&#160;</text></g><!--entity 1269633c6599d61f0f53e4c76335ddc0--><g id="elem_1269633c6599d61f0f53e4c76335ddc0"><rect fill="#F1F1F1" height="78.8906" rx="2.5" ry="2.5" style="stroke:#181818;stroke-width:0.5;" width="70" x="468" y="84"/><rect fill="#F1F1F1" height="10" style="stroke:#181818;stroke-width:0.5;" width="15" x="518" y="89"/><rect fill="#F1F1F1" height="2" style="stroke:#181818;stroke-width:0.5;" width="4" x="516" y="91"/><rect fill="#F1F1F1" height="2" style="stroke:#181818;stroke-width:0.5;" width="4" x="516" y="95"/><text fill="#000000" font-family="sans-serif" font-size="14" font-weight="bold" lengthAdjust="spacing" textLength="30" x="483" y="116.9951">urls</text><text fill="#000000" font-family="sans-serif" font-size="14" lengthAdjust="spacing" textLength="4" x="483" y="133.292">&#160;</text><text fill="#000000" font-family="sans-serif" font-size="14" lengthAdjust="spacing" textLength="4" x="483" y="149.5889">&#160;</text></g><!--entity 51ef623cb26f5d8efa364baa1c9c9821--><g id="elem_51ef623cb26f5d8efa364baa1c9c9821"><rect fill="#F1F1F1" height="78.8906" rx="2.5" ry="2.5" style="stroke:#181818;stroke-width:0.5;" width="75" x="356.5" y="84"/><rect fill="#F1F1F1" height="10" style="stroke:#181818;stroke-width:0.5;" width="15" x="411.5" y="89"/><rect fill="#F1F1F1" height="2" style="stroke:#181818;stroke-width:0.5;" width="4" x="409.5" y="91"/><rect fill="#F1F1F1" height="2" style="stroke:#181818;stroke-width:0.5;" width="4" x="409.5" y="95"/><text fill="#000000" font-family="sans-serif" font-size="14" font-weight="bold" lengthAdjust="spacing" textLength="35" x="371.5" y="116.9951">auth</text><text fill="#000000" font-family="sans-serif" font-size="14" lengthAdjust="spacing" textLength="4" x="371.5" y="133.292">&#160;</text><text fill="#000000" font-family="sans-serif" font-size="14" lengthAdjust="spacing" textLength="4" x="371.5" y="149.5889">&#160;</text></g><!--link 4f8407b2c951fbb2e522b914ffb7c1c0 to 7529d89b8adaee0046a812c5877968f7--><g id="link_4f8407b2c951fbb2e522b914ffb7c1c0_7529d89b8adaee0046a812c5877968f7"><path codeLine="48" d="M61.83,163.3 C64.14,181.96 66.1709,198.2857 68.4809,216.8957 " fill="none" id="4f8407b2c951fbb2e522b914ffb7c1c0-to-7529d89b8adaee0046a812c5877968f7" style="stroke:#181818;stroke-width:1.0;"/><polygon fill="#181818" points="69.22,222.85,72.0809,213.4258,68.6041,217.8881,64.1418,214.4113,69.22,222.85" style="stroke:#181818;stroke-width:1.0;"/></g><!--link 7529d89b8adaee0046a812c5877968f7 to 2c187c09ed69b22eeffd7199ae4813fb--><g id="link_7529d89b8adaee0046a812c5877968f7_2c187c09ed69b22eeffd7199ae4813fb"><path codeLine="49" d="M117.43,302.2 C138.2,320.77 158.5078,338.9501 179.2478,357.5001 " fill="none" id="7529d89b8adaee0046a812c5877968f7-to-2c187c09ed69b22eeffd7199ae4813fb" style="stroke:#181818;stroke-width:1.0;"/><polygon fill="#181818" points="183.72,361.5,179.6784,352.5186,179.9932,358.1667,174.3451,358.4815,183.72,361.5" style="stroke:#181818;stroke-width:1.0;"/></g><!--link 7529d89b8adaee0046a812c5877968f7 to fc89fd478e8a7211c8707355630c171a--><g id="link_7529d89b8adaee0046a812c5877968f7_fc89fd478e8a7211c8707355630c171a"><path codeLine="50" d="M76.55,302.2 C77.78,320.85 78.8575,337.1429 80.0775,355.7529 " fill="none" id="7529d89b8adaee0046a812c5877968f7-to-fc89fd478e8a7211c8707355630c171a" style="stroke:#181818;stroke-width:1.0;"/><polygon fill="#181818" points="80.47,361.74,83.8727,352.4976,80.1429,356.7507,75.8898,353.0209,80.47,361.74" style="stroke:#181818;stroke-width:1.0;"/></g><!--link eaf8db9a06add295c1d2286cd63c1368 to 7529d89b8adaee0046a812c5877968f7--><g id="link_eaf8db9a06add295c1d2286cd63c1368_7529d89b8adaee0046a812c5877968f7"><path codeLine="51" d="M141.14,163.26 C131.15,178.18 119.59,195.36 109,210.89 C106.42,214.67 107.1161,213.6705 104.4061,217.6005 " fill="none" id="eaf8db9a06add295c1d2286cd63c1368-to-7529d89b8adaee0046a812c5877968f7" style="stroke:#181818;stroke-width:1.0;"/><polygon fill="#181818" points="101,222.54,109.4021,217.4015,103.8384,218.4238,102.8162,212.86,101,222.54" style="stroke:#181818;stroke-width:1.0;"/></g><!--link eaf8db9a06add295c1d2286cd63c1368 to 2c187c09ed69b22eeffd7199ae4813fb--><g id="link_eaf8db9a06add295c1d2286cd63c1368_2c187c09ed69b22eeffd7199ae4813fb"><path codeLine="52" d="M162.49,163.29 C159.51,199.75 158.19,255.48 171,301.78 C176.82,322.82 184.9237,339.0422 195.8637,356.4222 " fill="none" id="eaf8db9a06add295c1d2286cd63c1368-to-2c187c09ed69b22eeffd7199ae4813fb" style="stroke:#181818;stroke-width:1.0;"/><polygon fill="#181818" points="199.06,361.5,197.6508,351.7525,196.3965,357.2685,190.8804,356.0142,199.06,361.5" style="stroke:#181818;stroke-width:1.0;"/></g><!--link 01e6d04cdc6bab0e976a03c9331b5be7 to 2c187c09ed69b22eeffd7199ae4813fb--><g id="link_01e6d04cdc6bab0e976a03c9331b5be7_2c187c09ed69b22eeffd7199ae4813fb"><path codeLine="53" d="M230.58,302.2 C229.9,320.85 229.3091,337.134 228.6291,355.744 " fill="none" id="01e6d04cdc6bab0e976a03c9331b5be7-to-2c187c09ed69b22eeffd7199ae4813fb" style="stroke:#181818;stroke-width:1.0;"/><polygon fill="#181818" points="228.41,361.74,232.736,352.8921,228.5926,356.7433,224.7413,352.5999,228.41,361.74" style="stroke:#181818;stroke-width:1.0;"/></g><!--SRC=[ZPBTQjj058JlzHGYbuRGFVj_RleYfPJpjwcePHbRYKjBthr23g6f2_Bjmipid6zelvyku_1pE3nrHv8Vz6Jzmppfz8sEnqyFFPtxv2B7OigDCQScrG1yXj10SiaK-z-TJEDnEjXXxcEhqHNsWWaQixVaFIF4rhW8YEk_TBlTysb_tkswhllwbx8aZrgHAocPEHSpLV2IQYcOQokhycMmowrq-HCsZQLQfU81f1PNGaevE842j4hFTXfeF_ooqws1KQlAI2wJgiSaeDxNB9g3GCXrDPZjFDzAlK0juj0q8tjlrfeMG2IBTRaHhz9nKljFPGUMrKLHoKpi39TpkY0O0d1YkrOc7OV3c_Jr7qPBfvT1xCf9tS8Z52vH0OX3oqKNb-KOoH8hVE2q4CGSWkI4g1cQQobObBAy9TLRJk-vuw2wjmkTtbAjcGLLH-W320Uqg6711-YLnDo7r0JMiW_2FhUarHg579a810MhXslXv_dxUz_NRdDHZ_huUNCztUQyLfijcdVQR0sosnpSVQNkizaijRd3ksp-0000]--></g></svg>